<svg xmlns="http://www.w3.org/2000/svg" viewBox="0 0 300 66.67"><defs><style>.a{fill:#2c3e50;}.b{fill:#e74c3c;}</style></defs><title>logo copy</title><path class="a" d="M96.84,28.51A5.53,5.53,0,0,0,93,27H84.39v11h8.83A4.9,4.9,0,0,0,97,36.34a5.65,5.65,0,0,0,1.43-3.93A5.34,5.34,0,0,0,96.84,28.51Z"/><polygon class="a" points="24.44 37.26 37.7 37.26 31.17 20.53 24.44 37.26"/><path class="a" d="M69,28.51A5.53,5.53,0,0,0,65.1,27H56.53v11h8.83a4.9,4.9,0,0,0,3.83-1.58,5.65,5.65,0,0,0,1.43-3.93A5.34,5.34,0,0,0,69,28.51Z"/><path class="a" d="M73.1,5.21H17.54L3.89,18.86v42.6H99.45L113.1,47.81V5.21h-40ZM43,51.45L38.72,40.83H23.52L19.29,51.45h-4.9L29.23,15.22h3.88l14.8,36.23H43ZM74.08,35.83a9.34,9.34,0,0,1-1.86,2.91,9,9,0,0,1-2.88,2,8.89,8.89,0,0,1-3.72.77H56.53v9.9H52.45V23.33H65.31a9,9,0,0,1,3.78.79,10,10,0,0,1,3,2.09,9.46,9.46,0,0,1,2,2.91,8.28,8.28,0,0,1,.69,3.29A9,9,0,0,1,74.08,35.83Zm27.86,0a9.34,9.34,0,0,1-1.86,2.91,9,9,0,0,1-2.88,2,8.89,8.89,0,0,1-3.72.77H84.39v9.9H80.31V23.33H93.16a9,9,0,0,1,3.78.79,10,10,0,0,1,3,2.09,9.46,9.46,0,0,1,2,2.91,8.28,8.28,0,0,1,.69,3.29A9,9,0,0,1,101.94,35.83Z"/><path class="b" d="M123.15,51.34V15.12h15.51a9.83,9.83,0,0,1,4.41,1,11.11,11.11,0,0,1,3.47,2.65,12.66,12.66,0,0,1,2.27,3.72,11.37,11.37,0,0,1,.82,4.21,12.44,12.44,0,0,1-.53,3.65,11.3,11.3,0,0,1-1.53,3.19,10.25,10.25,0,0,1-2.4,2.45A9.36,9.36,0,0,1,142,37.47l8.78,13.88h-5.2l-8.27-13h-9.59v13h-4.59Zm4.59-17.09h11a5.39,5.39,0,0,0,2.58-.61,6.12,6.12,0,0,0,2-1.66,8,8,0,0,0,1.28-2.42A9,9,0,0,0,145,26.7a7.76,7.76,0,0,0-.54-2.88,8.5,8.5,0,0,0-1.43-2.4,6.48,6.48,0,0,0-2.09-1.63,5.68,5.68,0,0,0-2.53-.59H127.74V34.25Z"/><path class="b" d="M177.38,47.72v3.62h-21V23.23H177v3.62H160.44v8.47h14.39v3.37H160.44v9h16.94Z"/><path class="b" d="M183.4,51.34V23.23h12.86A9,9,0,0,1,200,24a10,10,0,0,1,3,2.09A9.45,9.45,0,0,1,205,29a8.28,8.28,0,0,1,.69,3.29,9,9,0,0,1-.66,3.42,9.36,9.36,0,0,1-1.86,2.91,9,9,0,0,1-2.88,2,8.89,8.89,0,0,1-3.72.77h-9.08v9.9H183.4Zm4.08-13.52h8.83a4.9,4.9,0,0,0,3.83-1.58,5.64,5.64,0,0,0,1.43-3.93,5.34,5.34,0,0,0-1.63-3.9,5.53,5.53,0,0,0-3.88-1.56h-8.57v11Z"/><path class="b" d="M223.81,51.55a14.14,14.14,0,0,1-5.94-1.22,14.86,14.86,0,0,1-4.59-3.21,14.28,14.28,0,0,1-3-4.57,13.92,13.92,0,0,1-1-5.28,13.41,13.41,0,0,1,1.1-5.36,14.35,14.35,0,0,1,3.06-4.52A15.11,15.11,0,0,1,218,24.25a14.22,14.22,0,0,1,5.82-1.17,14,14,0,0,1,5.92,1.22,14.6,14.6,0,0,1,7.53,7.83,13.82,13.82,0,0,1,1,5.23,13.42,13.42,0,0,1-1.1,5.36,14.55,14.55,0,0,1-3,4.52,14.71,14.71,0,0,1-4.62,3.14A14.27,14.27,0,0,1,223.81,51.55ZM213.41,37.31a10.87,10.87,0,0,0,.74,4,10.18,10.18,0,0,0,2.12,3.37A10.73,10.73,0,0,0,219.55,47a10.06,10.06,0,0,0,4.31.89,9.84,9.84,0,0,0,4.31-.92,10.07,10.07,0,0,0,3.24-2.42,11,11,0,0,0,2-11.23,10.17,10.17,0,0,0-2.12-3.37A10.39,10.39,0,0,0,228,27.62a10.68,10.68,0,0,0-8.55.05,10.27,10.27,0,0,0-3.29,2.42A10.91,10.91,0,0,0,213.41,37.31Z"/><path class="b" d="M244.43,51.34V23.23h13.27a9,9,0,0,1,3.78.79,9.67,9.67,0,0,1,4.92,5,8.28,8.28,0,0,1,.69,3.29,8.36,8.36,0,0,1-.46,2.76,8.91,8.91,0,0,1-1.3,2.45,8.74,8.74,0,0,1-2,1.94,7.87,7.87,0,0,1-2.6,1.17l7.45,10.71h-4.69l-6.94-9.9h-8v9.9h-4.08Zm4.08-13.52h9.18a5.17,5.17,0,0,0,2.14-.43,4.86,4.86,0,0,0,1.66-1.2,5.62,5.62,0,0,0,1.07-1.76,5.85,5.85,0,0,0,.38-2.12,5.24,5.24,0,0,0-.43-2.12,5.36,5.36,0,0,0-1.2-1.73,5.9,5.9,0,0,0-1.76-1.17,5.26,5.26,0,0,0-2.12-.43h-8.93v11Z"/><path class="b" d="M296.11,26.85H285.55V51.34h-4.08V26.85H270.86V23.23h25.26v3.62Z"/></svg>